<?xml version="1.0" standalone="no"?><!DOCTYPE svg PUBLIC "-//W3C//DTD SVG 1.1//EN" "http://www.w3.org/Graphics/SVG/1.1/DTD/svg11.dtd"><svg t="1498707057689" class="icon" style="" viewBox="0 0 1056 1024" version="1.1" xmlns="http://www.w3.org/2000/svg" p-id="3140" xmlns:xlink="http://www.w3.org/1999/xlink" width="66" height="64"><defs><style type="text/css"></style></defs><path d="M527.968 65.152c246.4 0 446.88 200.448 446.88 446.848 0 246.368-200.48 446.848-446.88 446.848-246.368 0-446.816-200.48-446.816-446.848C81.152 265.6 281.6 65.152 527.968 65.152M527.968 1.152c-282.112 0-510.816 228.704-510.816 510.848s228.672 510.848 510.816 510.848c282.144 0 510.88-228.704 510.88-510.848S810.112 1.152 527.968 1.152L527.968 1.152z" p-id="3141" fill="#1afa29"></path><path d="M528 279.552c64.192 0 116.224 45.536 116.224 101.696l0 116.224 14.528 0c24.064 0 43.552 19.488 43.552 43.584l0 159.808c0 24.064-19.488 43.552-43.552 43.552l-261.504 0c-24.064 0-43.552-19.488-43.552-43.552l0-159.808c0-24.064 19.488-43.584 43.552-43.584l14.528 0 0-116.224C411.776 325.12 463.808 279.552 528 279.552M466.944 497.472l122.08 0c1.024-3.36 1.696-6.848 1.696-10.464l0-109.792c0-25.984-28.096-47.04-62.72-47.04s-62.752 21.056-62.752 47.04l0 109.792C465.248 490.656 465.952 494.112 466.944 497.472M528 700.864c16.064 0 29.056-12.992 29.056-29.056l0-22.624c17.28-10.048 29.056-28.576 29.056-50.016 0-32.128-26.016-58.112-58.112-58.112s-58.112 26.016-58.112 58.112c0 21.44 11.776 39.936 29.056 50.016l0 22.624C498.944 687.872 511.936 700.864 528 700.864M528 215.552c-99.36 0-180.224 74.336-180.224 165.696l0 64.288c-34.496 17.952-58.08 54.016-58.08 95.52l0 159.808c0 59.328 48.256 107.552 107.552 107.552l261.504 0c59.328 0 107.552-48.256 107.552-107.552l0-159.808c0-41.472-23.584-77.568-58.08-95.52l0-64.288C708.224 289.888 627.36 215.552 528 215.552L528 215.552z" p-id="3142" fill="#1afa29"></path></svg>