<?xml version="1.0" standalone="no"?><!DOCTYPE svg PUBLIC "-//W3C//DTD SVG 1.1//EN" "http://www.w3.org/Graphics/SVG/1.1/DTD/svg11.dtd"><svg t="1498711613263" class="icon" style="" viewBox="0 0 1448 1024" version="1.1" xmlns="http://www.w3.org/2000/svg" p-id="6159" xmlns:xlink="http://www.w3.org/1999/xlink" width="90.5" height="64"><defs><style type="text/css"></style></defs><path d="M496.260709 501.937175c0 9.976818 2.580212 18.749538 6.880564 26.662187 24.942046 45.239711 57.108685 87.211154 95.639846 125.742314 39.047203 39.047203 80.846632 70.697799 125.742315 95.639846 7.224593 3.956325 16.513355 6.70855 26.662187 6.70855 9.976818 0 19.26558-2.408198 26.662187-6.70855 44.379641-24.770032 86.695112-56.764656 125.914329-95.639846 38.703175-38.531161 70.869814-80.846632 96.155888-127.118427 4.128339-7.396607 6.192508-15.997312 6.192508-25.458089 0-9.288762-2.064169-17.717453-6.364523-25.458088-25.458088-45.927768-56.936671-88.071225-95.811859-127.118428-39.219217-39.219217-81.878717-71.385856-127.978498-96.67193-6.364522-3.440282-15.48127-5.84848-24.598018-5.848479-10.320847 0-13.933143 2.92424-21.845792 7.396606-45.067697 25.286074-92.199563 56.936671-130.55871 95.123803-39.219217 39.219217-70.697799 81.706703-95.81186 126.602386-4.300353 7.568621-6.880564 16.169326-6.880564 26.146145z" p-id="6160" fill="#1296db"></path></svg>