<?xml version="1.0" standalone="no"?><!DOCTYPE svg PUBLIC "-//W3C//DTD SVG 1.1//EN" "http://www.w3.org/Graphics/SVG/1.1/DTD/svg11.dtd"><svg t="1496836495265" class="icon" style="" viewBox="0 0 1024 1024" version="1.1" xmlns="http://www.w3.org/2000/svg" p-id="2384" xmlns:xlink="http://www.w3.org/1999/xlink" width="128" height="128"><defs><style type="text/css"></style></defs><path d="M419.850765 61.873186 117.189537 61.873186c-29.744441 0-53.854559 24.110117-53.854559 53.853535L63.334979 422.185438c0 29.743418 24.110117 53.855582 53.854559 53.855582l302.661228 0c29.740348 0 53.852512-24.112164 53.852512-53.855582L473.703277 115.726721C473.703277 85.983303 449.591113 61.873186 419.850765 61.873186zM391.838781 394.175501 145.199475 394.175501 145.199475 143.737682l246.638283 0L391.837758 394.175501z" p-id="2385" fill="#d81e06"></path><path d="M904.873344 61.873186 602.213139 61.873186c-29.744441 0-53.854559 24.110117-53.854559 53.853535L548.358581 422.185438c0 29.743418 24.110117 53.855582 53.854559 53.855582l302.661228 0c29.740348 0 53.852512-24.112164 53.852512-53.855582L958.726879 115.726721C958.725856 85.983303 934.614715 61.873186 904.873344 61.873186zM876.86136 394.175501 630.223077 394.175501 630.223077 143.737682 876.86136 143.737682 876.86136 394.175501z" p-id="2386" fill="#d81e06"></path><path d="M419.850765 543.994692 117.189537 543.994692c-29.744441 0-53.854559 24.110117-53.854559 53.853535L63.334979 904.305921c0 29.743418 24.110117 53.855582 53.854559 53.855582l302.661228 0c29.740348 0 53.852512-24.112164 53.852512-53.855582L473.703277 597.848227C473.703277 568.103786 449.591113 543.994692 419.850765 543.994692zM391.838781 876.297007 145.199475 876.297007 145.199475 625.859187l246.638283 0L391.837758 876.297007z" p-id="2387" fill="#d81e06"></path><path d="M904.873344 543.994692 602.213139 543.994692c-29.744441 0-53.854559 24.110117-53.854559 53.853535L548.358581 904.305921c0 29.743418 24.110117 53.855582 53.854559 53.855582l302.661228 0c29.740348 0 53.852512-24.112164 53.852512-53.855582L958.726879 597.848227C958.725856 568.103786 934.614715 543.994692 904.873344 543.994692zM876.86136 876.297007 630.223077 876.297007 630.223077 625.859187 876.86136 625.859187 876.86136 876.297007z" p-id="2388" fill="#d81e06"></path></svg>