<?xml version="1.0" standalone="no"?><!DOCTYPE svg PUBLIC "-//W3C//DTD SVG 1.1//EN" "http://www.w3.org/Graphics/SVG/1.1/DTD/svg11.dtd"><svg t="1497943020818" class="icon" style="" viewBox="0 0 1024 1024" version="1.1" xmlns="http://www.w3.org/2000/svg" p-id="1847" xmlns:xlink="http://www.w3.org/1999/xlink" width="64" height="64"><defs><style type="text/css"></style></defs><path d="M512 931.089067c-213.651911 0-386.844444-173.192533-386.844444-386.844444 0-147.820089 82.966756-276.161422 204.8-341.287822l0 52.906667c-95.596089 60.484267-159.288889 166.866489-159.288889 288.381156 0 188.507022 152.826311 341.333333 341.333333 341.333333s341.333333-152.826311 341.333333-341.333333c0-121.514667-63.6928-227.896889-159.288889-288.381156L694.044444 202.9568c121.833244 65.1264 204.8 193.467733 204.8 341.287822C898.844444 757.896533 725.651911 931.089067 512 931.089067zM512 498.733511c-12.583822 0-22.755556-10.171733-22.755556-22.755556l0-341.333333c0-12.561067 10.171733-22.755556 22.755556-22.755556s22.755556 10.194489 22.755556 22.755556l0 341.333333C534.755556 488.561778 524.583822 498.733511 512 498.733511z" p-id="1848" fill="#d81e06"></path></svg>